<svg xmlns="http://www.w3.org/2000/svg" xmlns:xlink="http://www.w3.org/1999/xlink" width="540" height="540" viewBox="0 0 138.089 139.0865"><symbol id="t" viewBox="-69.0441 -66.9059 138.089 139.0865"><g fill="#4B4C4E"><path d="M21.704-49.976h9.53c1.003 0 1.818-.815 1.818-1.82v-13.29c0-1.005-.815-1.82-1.82-1.82h-9.528c-1.005 0-1.82.815-1.82 1.82v13.29c0 1.005.815 1.82 1.82 1.82zM-21.766-49.976h-9.53c-1.003 0-1.818-.815-1.818-1.82v-13.29c0-1.005.815-1.82 1.82-1.82h9.528c1.005 0 1.82.815 1.82 1.82v13.29c0 1.005-.815 1.82-1.82 1.82z"/></g><path fill="#86AF3F" d="M34.657-23.57c0 3.65-1.81 3.958-3.956 3.958s-3.618-3.62-4.33-1.772l-.003-.003c-.836 2.96-5.02 13.048-8.456 14.81C14.324-4.737 6.135-5.013-.03-5.013s-14.355.276-17.943-1.564c-3.435-1.762-7.62-11.85-8.456-14.81v.003c-.714-1.847-2.186 1.772-4.333 1.772s-3.956-.307-3.956-3.957c0-3.648 8.015-.01 7.452-2.41-.266-1.495-.59-2.856-1.102-3.508-1.012-1.288-4.693-7.82-5.06-9.753-.37-1.933-2.76-15.09 2.943-18.22 5.705-3.128 24.935-2.484 30.456-2.484s24.75-.644 30.455 2.485c5.705 3.13 3.312 16.287 2.944 18.22s-4.05 8.464-5.06 9.752c-.514.652-.837 2.013-1.104 3.508-.563 2.4 7.45-1.238 7.45 2.41z"/><defs><path id="a" d="M15.181-38.137c.002-3.828 3.105-6.932 6.933-6.932s6.931 3.105 6.931 6.933-3.103 6.93-6.93 6.93-6.933-3.102-6.933-6.93z"/></defs><use xlink:href="#a" overflow="visible" fill="#CAE7F6"/><clipPath id="b"><use xlink:href="#a" overflow="visible"/></clipPath><path clip-path="url(#b)" fill="#98ADB9" d="M29.045-36.665c0-3.828-3.104-6.93-6.932-6.93s-6.93 3.102-6.93 6.93v-1.472c0-3.828 3.102-6.932 6.93-6.932s6.932 3.105 6.932 6.933"/><path opacity=".2" fill="gray" d="M33.37-39.24l-.478 1.41c.32-1.01 2.547-8.105-2.467-10.796C24.72-51.756 5.49-51.11-.03-51.11s-24.752-.645-30.457 2.484c-5.014 2.69-2.788 9.785-2.467 10.796l-.477-1.41c-.37-1.934-2.76-15.09 2.943-18.22 5.705-3.128 24.935-2.484 30.456-2.484s24.75-.644 30.455 2.484c5.704 3.13 3.312 16.287 2.944 18.22z"/><g><defs><path id="c" d="M17.88-9.246C9.785-8.386 6.227-8.02-.03-8.02s-9.816-.367-17.913-1.226c0 0-6.28-7.754-7.164-16.734H25.044C24.162-17 17.88-9.246 17.88-9.246z"/></defs><use xlink:href="#c" overflow="visible" fill="#CAE7F6"/><clipPath id="d"><use xlink:href="#c" overflow="visible"/></clipPath><path clip-path="url(#d)" fill="#8DCFD0" d="M-7.82-14.122c0-2.592-2.102-4.693-4.694-4.693s-4.693 2.1-4.693 4.693 2.1 4.692 4.693 4.692 4.693-2.1 4.693-4.692zM-4.8-26.567c0-3.976-3.454-7.2-7.714-7.2s-7.714 3.224-7.714 7.2 3.454 7.2 7.714 7.2 7.714-3.223 7.714-7.2zM17.145-14.122c0-2.592-2.1-4.693-4.693-4.693s-4.693 2.1-4.693 4.693S9.86-9.43 12.45-9.43s4.693-2.1 4.693-4.692z"/><path clip-path="url(#d)" fill="#8DCFD0" d="M3.266-26.567c0 1.987.72 3.814 1.915 5.278-1.374 1.184-3.194 1.923-5.21 1.923s-3.838-.74-5.212-1.922c1.195-1.463 1.914-3.29 1.914-5.277s-.72-3.814-1.914-5.278c1.374-1.183 3.194-1.922 5.21-1.922s3.838.74 5.213 1.922c-1.195 1.464-1.914 3.29-1.914 5.278z"/><path clip-path="url(#d)" fill="#8DCFD0" d="M20.166-26.567c0-3.976-3.454-7.2-7.714-7.2s-7.714 3.224-7.714 7.2 3.454 7.2 7.714 7.2 7.714-3.223 7.714-7.2zM4.662-14.122c0-2.592-2.1-4.693-4.693-4.693s-4.694 2.1-4.694 4.693S-2.624-9.43-.03-9.43s4.692-2.1 4.692-4.692z"/></g><g><defs><path id="e" d="M16.24-51.608c0-2.257-7.285-4.086-16.27-4.086s-16.272 1.83-16.272 4.086 7.285 4.086 16.27 4.086 16.272-1.83 16.272-4.086z"/></defs><use xlink:href="#e" overflow="visible" fill="#CAE7F6"/></g><g><defs><path id="f" d="M-29.107-38.137c0-3.828 3.104-6.932 6.932-6.932s6.931 3.105 6.931 6.933-3.103 6.93-6.93 6.93-6.933-3.102-6.933-6.93z"/></defs><use xlink:href="#f" overflow="visible" fill="#CAE7F6"/><clipPath id="g"><use xlink:href="#f" overflow="visible"/></clipPath><path clip-path="url(#g)" fill="#98ADB9" d="M-15.243-36.665c0-3.828-3.104-6.93-6.932-6.93s-6.93 3.102-6.93 6.93v-1.472c0-3.828 3.102-6.932 6.93-6.932s6.932 3.105 6.932 6.933"/></g><g><path fill="#86AF3F" d="M-21.364 50.847c0 11.782 9.55 21.334 21.333 21.334S21.3 62.63 21.3 50.847C21.302 29.957-.03 8.18-.03 8.18s-21.334 21.778-21.334 42.667z"/><path fill="#999" d="M-.03 72.18c11.78 0 21.332-9.55 21.332-21.333C21.302 29.957-.03 8.18-.03 8.18v64z" opacity=".2"/><linearGradient id="h" gradientUnits="userSpaceOnUse" x1="-.031" y1="72.181" x2="-.031" y2="8.181"><stop offset="0" stop-color="#FFF"/><stop offset="1"/></linearGradient><path opacity=".1" fill="url(#h)" d="M-21.364 50.847c0 11.782 9.55 21.334 21.333 21.334S21.3 62.63 21.3 50.847C21.302 29.957-.03 8.18-.03 8.18s-21.334 21.778-21.334 42.667z"/><path fill="#FFF" d="M13.756 50.892c0-7.66-6.208-13.867-13.867-13.867S-13.98 43.233-13.98 50.892-7.768 64.758-.11 64.758s13.866-6.208 13.866-13.866z"/><linearGradient id="i" gradientUnits="userSpaceOnUse" x1="-.111" y1="35.985" x2="-.111" y2="65.798"><stop offset="0" stop-color="#FFF"/><stop offset="1" stop-color="#B3B3B3"/></linearGradient><path fill="url(#i)" d="M-.11 65.798c-8.234 0-14.908-6.674-14.908-14.906 0-8.233 6.674-14.907 14.907-14.907 8.232 0 14.906 6.674 14.906 14.907 0 8.232-6.674 14.906-14.907 14.906zm0-28.773c-7.66 0-13.867 6.208-13.867 13.867 0 7.658 6.208 13.866 13.866 13.866 7.658 0 13.866-6.208 13.866-13.866 0-7.66-6.208-13.867-13.867-13.867z"/><g><defs><path id="j" d="M11.69 50.892c0-6.517-5.284-11.8-11.8-11.8s-11.8 5.283-11.8 11.8 5.282 11.8 11.8 11.8 11.8-5.283 11.8-11.8z"/></defs><clipPath id="k"><use xlink:href="#j" overflow="visible"/></clipPath><path clip-path="url(#k)" fill="#86AF3F" d="M-.03 26.093L-12.943 41.38c.43 3.117 3.285 3.87 3.81 4 .526.132 3.32 1.494 3.798 2.318-.322.812 2.054 1.29 2.054 1.29v.728s-1.098 2.27-1.242 3.858c-.86.096-1.29 1.947-.477 2.413-.907 5.016 2.103 6.592 4.97 6.592s5.875-1.577 4.967-6.593c.812-.466.383-2.317-.477-2.413-.144-1.588-1.242-3.858-1.242-3.858v-.728s2.376-.478 2.054-1.29c.477-.824 3.272-2.186 3.798-2.317.525-.13 3.38-.883 3.81-4L-.03 26.092z"/></g></g><g><path fill="#86AF3F" d="M-65.05 12.464c-6.06 7.22-5.118 17.985 2.103 24.044s17.985 5.117 24.044-2.103c10.742-12.802 8.867-37.118 8.867-37.118S-54.31-.337-65.05 12.464z"/><path fill="#999" d="M-62.947 36.508c7.22 6.06 17.985 5.117 24.044-2.103 10.742-12.802 8.867-37.118 8.867-37.118l-32.91 39.22z" opacity=".2"/><linearGradient id="l" gradientUnits="userSpaceOnUse" x1="6946.614" y1="3624.102" x2="6946.614" y2="3572.902" gradientTransform="rotate(40.002 8369.883 -7798.955)"><stop offset="0" stop-color="#FFF"/><stop offset="1"/></linearGradient><path opacity=".1" fill="url(#l)" d="M-65.05 12.464c-6.06 7.22-5.118 17.985 2.103 24.044s17.985 5.117 24.044-2.103c10.742-12.802 8.867-37.118 8.867-37.118S-54.31-.337-65.05 12.464z"/><path fill="#FFF" d="M-43.55 30.55c3.937-4.692 3.325-11.69-1.368-15.627s-11.69-3.326-15.63 1.367-3.325 11.69 1.37 15.629 11.69 3.325 15.627-1.37z"/><linearGradient id="m" gradientUnits="userSpaceOnUse" x1="6946.55" y1="3595.146" x2="6946.55" y2="3618.997" gradientTransform="rotate(40.002 8369.883 -7798.955)"><stop offset="0" stop-color="#FFF"/><stop offset="1" stop-color="#B3B3B3"/></linearGradient><path fill="url(#m)" d="M-59.714 32.556c-5.046-4.234-5.704-11.756-1.47-16.8 4.233-5.046 11.755-5.704 16.8-1.47 5.046 4.233 5.704 11.755 1.47 16.8-4.233 5.045-11.755 5.703-16.8 1.47zm14.796-17.633c-4.693-3.94-11.69-3.327-15.63 1.367-3.937 4.693-3.325 11.69 1.37 15.629 4.692 3.937 11.69 3.325 15.627-1.37 3.937-4.692 3.325-11.69-1.368-15.628z"/><g><defs><path id="n" d="M-44.817 29.49c3.35-3.995 2.83-9.95-1.164-13.3s-9.95-2.83-13.3 1.163-2.83 9.948 1.163 13.3 9.948 2.83 13.3-1.164z"/></defs><clipPath id="o"><use xlink:href="#n" overflow="visible"/></clipPath><path clip-path="url(#o)" fill="#86AF3F" d="M-39.247 8.264l-15.774 2.73c-1.34 2.13.022 4.06.277 4.41.254.35 1.267 2.623 1.136 3.373-.616.332.595 1.847.595 1.847l-.374.447s-1.84.826-2.745 1.726c-.577-.383-1.793.53-1.535 1.233-3.135 2.606-2.102 5.12-.345 6.594s4.412 2.056 6.435-1.485c.737.13 1.426-1.224.948-1.725.73-1.047 1.222-3.003 1.222-3.003l.375-.447s1.702.93 1.922.266c.717-.258 3.13.345 3.52.534s2.525 1.197 4.39-.492l-.05-16.008z"/></g></g><g><path fill="#86AF3F" d="M38.904 34.327c6.06 7.22 16.824 8.162 24.044 2.104s8.162-16.823 2.104-24.043C54.31-.415 30.037-2.79 30.037-2.79s-1.875 24.316 8.867 37.117z"/><path fill="#999" d="M62.948 36.43c7.22-6.058 8.162-16.823 2.104-24.043C54.31-.415 30.037-2.79 30.037-2.79l32.91 39.22z" opacity=".2"/><linearGradient id="p" gradientUnits="userSpaceOnUse" x1="-3030.111" y1="-7136.572" x2="-3030.111" y2="-7187.772" gradientTransform="rotate(-40.002 8370.18 -7798.76)"><stop offset="0" stop-color="#FFF"/><stop offset="1"/></linearGradient><path opacity=".1" fill="url(#p)" d="M38.904 34.327c6.06 7.22 16.824 8.162 24.044 2.104s8.162-16.823 2.104-24.043C54.31-.415 30.037-2.79 30.037-2.79s-1.875 24.316 8.867 37.117z"/><path fill="#FFF" d="M60.45 16.295c-3.94-4.694-10.936-5.306-15.63-1.368s-5.304 10.936-1.366 15.63 10.935 5.304 15.628 1.366 5.306-10.935 1.368-15.628z"/><linearGradient id="q" gradientUnits="userSpaceOnUse" x1="-3030.175" y1="-7165.528" x2="-3030.175" y2="-7141.678" gradientTransform="rotate(-40.002 8370.18 -7798.76)"><stop offset="0" stop-color="#FFF"/><stop offset="1" stop-color="#B3B3B3"/></linearGradient><path fill="url(#q)" d="M59.617 32.56c-5.045 4.234-12.567 3.576-16.8-1.47-4.234-5.045-3.576-12.567 1.47-16.8 5.045-4.234 12.567-3.575 16.8 1.47 4.234 5.045 3.575 12.567-1.47 16.8zM44.82 14.928c-4.692 3.938-5.305 10.936-1.366 15.63 3.938 4.692 10.935 5.304 15.628 1.366 4.694-3.938 5.306-10.935 1.368-15.628-3.94-4.694-10.936-5.306-15.63-1.368z"/><g><defs><path id="r" d="M59.183 17.357c-3.35-3.994-9.305-4.515-13.3-1.163s-4.514 9.305-1.163 13.3c3.35 3.993 9.306 4.514 13.3 1.163s4.515-9.306 1.163-13.3z"/></defs><clipPath id="s"><use xlink:href="#r" overflow="visible"/></clipPath><path clip-path="url(#s)" fill="#86AF3F" d="M39.248 8.186l-.05 16.008c1.866 1.69 4.002.683 4.392.493s2.802-.792 3.52-.533c.22.663 1.92-.266 1.92-.266l.375.447s.494 1.955 1.223 3.002c-.478.5.21 1.857.948 1.725 2.023 3.54 4.678 2.96 6.435 1.485 1.757-1.474 2.79-3.988-.345-6.595.26-.703-.957-1.617-1.533-1.233-.905-.9-2.745-1.726-2.745-1.726l-.375-.447s1.21-1.515.596-1.847c-.13-.75.882-3.022 1.136-3.373s1.617-2.28.278-4.41l-15.774-2.73z"/></g></g></symbol><use xlink:href="#t" width="138.089" height="139.087" x="-69.044" y="-66.906" transform="matrix(1 0 0 -1 69.044 72.18)" overflow="visible"/></svg>